<?xml version="1.0" encoding="UTF-8"?>
<svg id="Camada_1" xmlns="http://www.w3.org/2000/svg" viewBox="0 0 223.86 35.99">
  <defs>
    <style>
      .cls-1 {
        fill: #575756;
      }

      .cls-2 {
        fill: #164193;
      }

      .cls-3 {
        fill: #e7490f;
      }
    </style>
  </defs>
  <path class="cls-1" d="M151.98.57c.14.02.18.06.15.19l-.08.48c-.02.13-.06.2-.24.18-.49-.04-1.27-.07-1.92-.07-.9,0-1.85.15-1.85,1.13,0,.54.26.81.99,1.29l.91.61c1.04.69,1.4,1.28,1.4,2.09,0,1.57-1.32,2.38-3.11,2.38-.61,0-1.41-.08-1.89-.15-.13-.02-.2-.07-.18-.2l.08-.44c.02-.15.07-.2.26-.18.5.05,1.31.07,1.82.07,1.2,0,1.95-.41,1.95-1.47,0-.54-.29-.81-1.07-1.33l-.97-.66c-.76-.51-1.22-1.15-1.22-1.95,0-1.54,1.34-2.1,2.86-2.1.65,0,1.67.07,2.08.13h.03Z"/>
  <path class="cls-1" d="M157.32,5.32l-.09.47c-.04.14-.08.25-.25.25h-3.75l-.02.13c-.05.26-.07.48-.07.68,0,.83.53,1.19,1.38,1.19.64,0,1.4-.08,1.93-.15.16-.02.23,0,.21.15l-.07.37c-.02.15-.08.22-.27.26-.66.12-1.2.19-1.95.19-1.1,0-2.2-.56-2.2-2.06,0-.21.02-.44.07-.69l.14-.78c.34-1.77,1.37-2.75,2.95-2.75,1.38,0,2.03.9,2.03,2.07,0,.21-.02.43-.07.67h0ZM155.21,3.43c-.97,0-1.61.77-1.81,1.79v.06h2.94v-.06c.06-.22.08-.43.08-.61,0-.79-.41-1.18-1.2-1.18h0Z"/>
  <path class="cls-1" d="M158.76,8.56c-.02.12-.14.22-.27.22h-.55c-.12,0-.19-.12-.16-.22l.99-5.68c.02-.12.13-.22.26-.22h.53c.13,0,.19.12.16.22l-.05.26c.6-.47,1.13-.56,1.65-.56h.02c.19,0,.22.08.2.2l-.08.47c-.02.12-.12.19-.27.19h-.04c-.63,0-1.05.12-1.59.46l-.81,4.67v-.02Z"/>
  <path class="cls-1" d="M166.99,2.92l-2.32,5.05c-.33.7-.79.88-1.24.88s-.84-.18-.92-.88l-.54-5.05c-.02-.2.08-.27.21-.27h.57c.09,0,.16.07.18.21l.39,4.83c.02.28.1.35.21.35.1,0,.2-.07.33-.35l2.1-4.83c.07-.14.12-.21.29-.21h.62c.09,0,.14.06.14.13,0,.05,0,.09-.04.13h0Z"/>
  <path class="cls-1" d="M168.82,2.66c.13,0,.21.05.18.22l-.99,5.68c-.02.12-.08.22-.27.22h-.54c-.15,0-.2-.12-.18-.22l.99-5.68c.04-.2.14-.22.27-.22h.54ZM169.25.35c.15,0,.2.07.18.22l-.15.89c-.04.15-.09.22-.27.22h-.57c-.16,0-.2-.12-.18-.22l.15-.89c.02-.12.1-.22.27-.22,0,0,.57,0,.57,0Z"/>
  <path class="cls-1" d="M174.09,2.94l-.07.4c-.02.12-.13.16-.23.16h-.04c-.48-.06-.81-.08-1.36-.08-.89,0-1.53.7-1.73,1.85l-.14.87c-.05.26-.07.47-.07.67,0,.84.4,1.18,1.12,1.18.55,0,.91-.02,1.4-.08h.04c.09,0,.16.05.16.13v.04l-.07.4c-.02.15-.09.21-.27.25-.37.07-.89.12-1.41.12-1.3,0-1.95-.9-1.95-2.09,0-.2.02-.4.06-.61l.14-.87c.3-1.8,1.33-2.7,2.85-2.7.53,0,1.02.06,1.37.12.13.02.19.07.19.16,0,.02,0,.05,0,.08v-.02ZM171.98,9.3l-1.51,1.4c-.12.12-.15.16-.28.16h-.6c-.06,0-.09-.02-.09-.07,0-.03.02-.08.07-.12l1.32-1.38c.12-.12.16-.16.3-.16h.74c.07,0,.12.02.12.07,0,.02,0,.06-.06.1h0Z"/>
  <path class="cls-1" d="M179.02,5.29l-.14.84c-.29,1.7-1.2,2.71-2.96,2.71-1.33,0-2.05-.87-2.05-2.1,0-.2.02-.4.06-.61l.14-.84c.31-1.8,1.29-2.71,2.95-2.71,1.37,0,2.06.87,2.06,2.09,0,.2-.02.41-.06.62ZM176.87,3.43c-.97,0-1.64.72-1.82,1.86l-.14.84c-.05.25-.07.46-.07.66,0,.79.35,1.2,1.23,1.2.98,0,1.65-.77,1.84-1.86l.14-.84c.05-.23.06-.44.06-.63,0-.81-.35-1.23-1.23-1.23h0Z"/>
  <path class="cls-1" d="M188.56.72c.02-.12.07-.21.23-.21h.59c.12,0,.16.08.16.16v.05l-1.37,7.74c-.04.18-.09.33-.38.33h-.64c-.23,0-.28-.07-.33-.18l-2.34-6.54-.02-.03s-.02,0-.02.03l-1.15,6.5c-.02.12-.12.21-.23.21h-.64c-.08,0-.13-.03-.12-.13l1.38-7.82c.03-.18.12-.31.37-.31h.55c.32,0,.35.06.41.22l2.32,6.44c.02.07.03.09.05.09s.02-.02.04-.09l1.13-6.45Z"/>
  <path class="cls-1" d="M194.64,2.84c.2.05.21.12.19.26l-.96,5.47c-.02.12-.08.22-.26.22h-.44c-.16,0-.19-.09-.16-.25l.06-.35c-.65.47-1.05.67-1.79.67-.95,0-1.74-.6-1.74-1.98,0-.21.02-.43.07-.67l.2-1.1c.35-1.93,1.56-2.54,2.9-2.54.67,0,1.38.12,1.95.26h0ZM192.69,3.4c-1.15,0-1.73.63-1.94,1.81l-.2,1.15c-.04.16-.05.35-.05.51,0,.85.43,1.16.97,1.16s1-.23,1.61-.64l.68-3.87c-.3-.06-.61-.12-1.08-.12h0Z"/>
  <path class="cls-1" d="M196.42,5.28l-.14.87c-.05.26-.07.47-.07.67,0,.84.4,1.18,1.12,1.18.55,0,.91-.02,1.4-.08.18-.04.22.05.2.16l-.07.4c-.02.15-.09.21-.27.25-.36.07-.89.12-1.41.12-1.3,0-1.95-.9-1.95-2.09,0-.2.02-.4.06-.61l.14-.87c.3-1.8,1.32-2.7,2.85-2.7.51,0,1.02.06,1.37.12.2.04.2.1.18.25l-.07.4c-.02.12-.07.2-.27.16-.48-.06-.81-.08-1.36-.08-.89,0-1.53.7-1.73,1.85v-.02Z"/>
  <path class="cls-1" d="M201.73,2.66c.13,0,.21.05.18.22l-.99,5.68c-.02.12-.08.22-.27.22h-.54c-.15,0-.2-.12-.18-.22l.99-5.68c.04-.2.14-.22.27-.22h.54ZM202.16.35c.15,0,.2.07.18.22l-.15.89c-.04.15-.09.22-.27.22h-.57c-.16,0-.2-.12-.18-.22l.15-.89c.02-.12.1-.22.27-.22,0,0,.57,0,.57,0Z"/>
  <path class="cls-1" d="M207.6,5.29l-.14.84c-.29,1.7-1.2,2.71-2.96,2.71-1.33,0-2.05-.87-2.05-2.1,0-.2.02-.4.06-.61l.14-.84c.31-1.8,1.29-2.71,2.95-2.71,1.37,0,2.06.87,2.06,2.09,0,.2-.02.41-.06.62ZM205.45,3.43c-.97,0-1.64.72-1.82,1.86l-.14.84c-.05.25-.07.46-.07.66,0,.79.35,1.2,1.23,1.2.98,0,1.65-.77,1.84-1.86l.14-.84c.05-.23.06-.44.06-.63,0-.81-.35-1.23-1.23-1.23h0Z"/>
  <path class="cls-1" d="M213.38,4.9l-.64,3.66c-.02.12-.14.22-.27.22h-.54c-.13,0-.2-.12-.18-.22l.64-3.66c.04-.21.06-.43.06-.61,0-.54-.22-.84-1.04-.84-.42,0-.85.09-1.57.42l-.82,4.7c-.02.12-.14.22-.27.22h-.55c-.13,0-.19-.12-.16-.22l.99-5.68c.02-.12.09-.22.29-.22h.47c.18,0,.23.07.21.22l-.04.23c.54-.3,1.04-.54,1.79-.54,1.19,0,1.67.76,1.67,1.72,0,.19-.02.41-.06.6h.02Z"/>
  <path class="cls-1" d="M219.1,2.84c.2.05.21.12.19.26l-.96,5.47c-.02.12-.08.22-.26.22h-.44c-.16,0-.19-.09-.16-.25l.06-.35c-.65.47-1.05.67-1.79.67-.95,0-1.74-.6-1.74-1.98,0-.21.02-.43.07-.67l.2-1.1c.35-1.93,1.56-2.54,2.9-2.54.67,0,1.38.12,1.95.26h0ZM217.15,3.4c-1.15,0-1.73.63-1.94,1.81l-.2,1.15c-.04.16-.05.35-.05.51,0,.85.43,1.16.97,1.16s1-.23,1.61-.64l.68-3.87c-.3-.06-.61-.12-1.08-.12h0Z"/>
  <path class="cls-1" d="M221.87.41c.12,0,.19.06.15.21l-1.39,7.94c-.02.12-.07.22-.24.22h-.58c-.12,0-.18-.12-.15-.22l1.39-7.94c.02-.12.08-.21.25-.21h.58,0Z"/>
  <path class="cls-1" d="M149.13,13.76h.57c.12,0,.18.06.15.21l-1.37,7.8c-.02.14-.08.22-.28.26-.71.13-1.4.19-2.08.19-1.36,0-2.01-.83-2.01-2.05,0-.22.02-.46.07-.7l.14-.81c.35-1.92,1.28-2.72,2.91-2.72.35,0,.87.03,1.28.12l.36-2.07c.03-.15.13-.21.26-.21h0ZM147.08,16.79c-1.09,0-1.58.79-1.78,1.87l-.14.81c-.05.27-.08.51-.08.72,0,.76.34,1.17,1.19,1.17.38,0,.92-.04,1.31-.07l.78-4.42c-.35-.07-.92-.08-1.28-.08h0Z"/>
  <path class="cls-1" d="M155,18.67l-.09.47c-.04.14-.08.25-.25.25h-3.75l-.02.13c-.05.26-.07.48-.07.68,0,.83.53,1.19,1.38,1.19.64,0,1.4-.08,1.93-.15.16-.02.23,0,.21.15l-.07.38c-.02.15-.08.22-.27.26-.66.12-1.2.19-1.95.19-1.1,0-2.2-.56-2.2-2.06,0-.21.02-.44.07-.69l.14-.78c.34-1.77,1.37-2.75,2.95-2.75,1.38,0,2.03.9,2.03,2.07,0,.21-.02.43-.07.67v-.02ZM152.88,16.79c-.97,0-1.61.77-1.81,1.79v.06h2.94v-.06c.06-.22.08-.43.08-.61,0-.79-.41-1.18-1.2-1.18h0Z"/>
  <path class="cls-1" d="M163.97,22.14h-.67c-.1,0-.14-.08-.15-.16l-.28-2.56h-2.89l-1.16,2.56c-.04.09-.1.16-.23.16h-.68c-.1,0-.15-.06-.15-.14,0-.03,0-.07.02-.12l3.34-7.25c.32-.68.8-.84,1.28-.84.46,0,.9.15.98.83l.78,7.26v.05c0,.12-.06.21-.19.21h0ZM162.44,14.86c0-.12-.07-.2-.18-.2-.12,0-.2.08-.26.2l-1.66,3.66h2.46l-.36-3.66Z"/>
  <path class="cls-1" d="M170.24,18.69l-.14.81c-.35,1.89-1.2,2.72-2.91,2.72-.35,0-.87-.05-1.28-.12l-.35,2.01c-.02.12-.13.21-.26.21h-.57c-.1,0-.15-.07-.15-.16v-.03h0l1.35-7.67c.02-.15.08-.21.28-.26.61-.14,1.41-.26,2.09-.26,1.36,0,2.01.82,2.01,2.03,0,.22-.02.47-.07.71h0ZM168.14,16.76c-.47,0-1.02.06-1.32.12l-.77,4.41c.35.07.92.12,1.28.12,1.03,0,1.57-.76,1.78-1.91l.14-.81c.06-.29.08-.55.08-.77,0-.76-.33-1.16-1.19-1.16h0Z"/>
  <path class="cls-1" d="M171.66,21.91c-.02.12-.14.22-.27.22h-.55c-.12,0-.19-.12-.16-.22l.99-5.68c.02-.12.13-.22.26-.22h.53c.13,0,.19.12.16.22l-.05.26c.6-.47,1.13-.56,1.65-.56h.02c.19,0,.22.08.2.2l-.08.47c-.02.12-.12.19-.27.19h-.04c-.63,0-1.05.12-1.59.46l-.81,4.67v-.02Z"/>
  <path class="cls-1" d="M179.25,18.67l-.09.47c-.04.14-.08.25-.25.25h-3.75l-.02.13c-.05.26-.07.48-.07.68,0,.83.53,1.19,1.38,1.19.64,0,1.4-.08,1.93-.15.16-.02.23,0,.21.15l-.07.38c-.02.15-.08.22-.27.26-.66.12-1.2.19-1.95.19-1.1,0-2.2-.56-2.2-2.06,0-.21.02-.44.07-.69l.14-.78c.34-1.77,1.37-2.75,2.95-2.75,1.38,0,2.03.9,2.03,2.07,0,.21-.02.43-.07.67v-.02ZM177.13,16.79c-.97,0-1.61.77-1.81,1.79v.06h2.94v-.06c.06-.22.08-.43.08-.61,0-.79-.41-1.18-1.2-1.18h0Z"/>
  <path class="cls-1" d="M185.03,18.25l-.64,3.66c-.02.12-.14.22-.27.22h-.54c-.13,0-.2-.12-.18-.22l.64-3.66c.04-.21.06-.43.06-.61,0-.54-.22-.84-1.04-.84-.42,0-.85.09-1.57.42l-.82,4.7c-.02.12-.14.22-.27.22h-.55c-.13,0-.19-.12-.16-.22l.99-5.68c.02-.12.09-.22.29-.22h.47c.18,0,.23.07.21.22l-.04.23c.54-.3,1.04-.54,1.79-.54,1.19,0,1.67.76,1.67,1.72,0,.19-.02.41-.06.6h.02Z"/>
  <path class="cls-1" d="M190.78,13.76h.57c.12,0,.18.06.15.21l-1.37,7.8c-.02.14-.08.22-.28.26-.71.13-1.4.19-2.08.19-1.36,0-2.01-.83-2.01-2.05,0-.22.02-.46.07-.7l.14-.81c.35-1.92,1.28-2.72,2.91-2.72.35,0,.87.03,1.28.12l.36-2.07c.03-.15.13-.21.26-.21h0ZM188.73,16.79c-1.09,0-1.58.79-1.78,1.87l-.14.81c-.05.27-.08.51-.08.72,0,.76.34,1.17,1.19,1.17.38,0,.92-.04,1.31-.07l.78-4.42c-.35-.07-.92-.08-1.28-.08h0Z"/>
  <path class="cls-1" d="M193.26,16.01c.13,0,.21.05.18.22l-.99,5.68c-.02.12-.08.22-.27.22h-.54c-.15,0-.2-.12-.18-.22l.99-5.68c.04-.2.14-.22.27-.22h.54ZM193.69,13.69c.15,0,.2.07.18.22l-.15.89c-.04.15-.09.22-.27.22h-.57c-.16,0-.2-.12-.18-.22l.15-.89c.02-.12.1-.22.27-.22h.57Z"/>
  <path class="cls-1" d="M198.18,17.48l-3.48,3.61c-.06.06-.08.1-.08.13,0,.05.05.08.12.08h2.84c.19,0,.2.12.18.22l-.07.37c-.04.16-.07.22-.26.22h-2.82c-.67,0-.97-.35-.97-.78,0-.22.07-.47.26-.66l3.55-3.68c.06-.06.07-.08.07-.12s-.04-.06-.12-.06h-2.74c-.12,0-.2-.07-.18-.22l.07-.37c.03-.18.13-.22.26-.22h2.78c.63,0,.89.35.89.77,0,.23-.09.48-.3.7h0Z"/>
  <path class="cls-1" d="M203.82,16.18c.2.05.21.12.19.26l-.96,5.47c-.02.12-.08.22-.26.22h-.44c-.16,0-.19-.09-.16-.25l.06-.35c-.65.47-1.05.67-1.79.67-.95,0-1.74-.6-1.74-1.97,0-.21.02-.43.07-.67l.2-1.1c.35-1.93,1.56-2.54,2.9-2.54.67,0,1.38.12,1.95.26h0ZM201.88,16.76c-1.15,0-1.73.63-1.94,1.81l-.2,1.15c-.04.16-.05.35-.05.51,0,.85.43,1.16.97,1.16s1-.23,1.61-.64l.68-3.87c-.3-.06-.61-.12-1.08-.12h0Z"/>
  <path class="cls-1" d="M204.64,18.66c.35-2,1.29-2.72,2.96-2.72.66,0,1.45.13,1.95.26.21.05.21.12.19.26l-1,5.68c-.3,1.73-1.05,2.21-2.65,2.21-.84,0-1.55-.12-1.86-.2-.18-.05-.2-.1-.18-.23l.06-.33c.02-.14.08-.2.27-.18.37.05,1.27.13,1.86.13.99,0,1.35-.33,1.51-1.33l.02-.13c-.29.07-.94.15-1.27.15-1.2,0-2.07-.59-2.07-1.99,0-.22.02-.48.07-.75l.14-.81h0ZM207.46,16.76c-1.04,0-1.6.6-1.84,1.91l-.14.81c-.06.3-.08.57-.08.79,0,.84.4,1.12,1.25,1.12.32,0,.91-.05,1.27-.12l.77-4.39c-.3-.06-.76-.12-1.23-.12h0Z"/>
  <path class="cls-1" d="M215.31,18.67l-.09.47c-.04.14-.08.25-.25.25h-3.75l-.02.13c-.05.26-.07.48-.07.68,0,.83.53,1.19,1.38,1.19.64,0,1.4-.08,1.93-.15.16-.02.23,0,.21.15l-.07.38c-.02.15-.08.22-.27.26-.66.12-1.2.19-1.95.19-1.1,0-2.2-.56-2.2-2.06,0-.21.02-.44.07-.69l.14-.78c.34-1.77,1.37-2.75,2.95-2.75,1.38,0,2.03.9,2.03,2.07,0,.21-.02.43-.07.67v-.02ZM213.19,16.79c-.97,0-1.61.77-1.81,1.79v.06h2.94v-.06c.06-.22.08-.43.08-.61,0-.79-.41-1.18-1.2-1.18h0Z"/>
  <path class="cls-1" d="M223.81,18.03l-.68,3.88c-.02.12-.14.22-.27.22h-.54c-.13,0-.2-.12-.18-.22l.68-3.88c.03-.18.05-.34.05-.47,0-.59-.29-.77-.88-.77-.35,0-.85.07-1.36.33.05.25,0,.69-.02.89l-.68,3.91c-.02.12-.12.22-.24.22h-.59c-.13,0-.16-.12-.14-.22l.68-3.91c.05-.25.08-.42.08-.6,0-.47-.29-.61-.67-.61-.53,0-1.19.29-1.48.42l-.82,4.7c-.02.12-.12.22-.24.22h-.59c-.13,0-.16-.12-.14-.22l.99-5.68c.02-.12.08-.22.26-.22h.54c.18,0,.19.12.16.22l-.04.21c.56-.34,1.07-.51,1.63-.51.48,0,.91.21,1.11.5.7-.39,1.22-.5,1.82-.5,1.11,0,1.63.64,1.63,1.61,0,.16-.02.3-.06.48h0Z"/>
  <path class="cls-1" d="M143.88,27.21c.14,0,.19.07.16.21l-1.38,7.83c-.02.15-.09.22-.25.22h-.61c-.14,0-.18-.12-.15-.22l1.38-7.83c.02-.12.07-.21.23-.21h.62Z"/>
  <path class="cls-1" d="M149.45,31.6l-.64,3.66c-.02.12-.14.22-.27.22h-.54c-.13,0-.2-.12-.18-.22l.64-3.66c.04-.21.06-.43.06-.61,0-.54-.22-.84-1.04-.84-.42,0-.85.09-1.57.42l-.82,4.7c-.02.12-.14.22-.27.22h-.55c-.13,0-.19-.12-.16-.22l.99-5.68c.02-.12.09-.22.29-.22h.47c.18,0,.23.07.21.22l-.04.23c.54-.3,1.04-.54,1.79-.54,1.19,0,1.67.76,1.67,1.72,0,.19-.02.41-.06.6h.02Z"/>
  <path class="cls-1" d="M155.2,27.11h.57c.12,0,.18.06.15.21l-1.37,7.8c-.02.14-.08.22-.28.26-.71.13-1.4.19-2.08.19-1.36,0-2.01-.83-2.01-2.05,0-.22.02-.46.07-.7l.14-.81c.35-1.92,1.28-2.72,2.91-2.72.35,0,.87.04,1.28.12l.36-2.07c.03-.15.13-.21.26-.21h0ZM153.15,30.14c-1.09,0-1.58.79-1.78,1.87l-.14.81c-.05.27-.08.51-.08.72,0,.76.34,1.17,1.19,1.17.38,0,.92-.04,1.31-.07l.78-4.42c-.35-.07-.92-.08-1.28-.08h0Z"/>
  <path class="cls-1" d="M161.26,29.37c.15,0,.19.12.16.22l-.99,5.68c-.02.12-.13.22-.26.22h-.53c-.13,0-.19-.12-.16-.22l.04-.2c-.67.35-1.19.5-1.85.5-.96,0-1.63-.59-1.63-1.75,0-.21.02-.43.07-.68l.62-3.54c.04-.16.14-.22.27-.22h.54c.13,0,.2.08.18.22l-.64,3.66c-.05.25-.07.46-.07.63,0,.62.3.82,1.04.82.47,0,1.03-.15,1.58-.41l.82-4.71c.02-.12.08-.22.27-.22h.55,0Z"/>
  <path class="cls-1" d="M166.16,29.43c.16.04.19.07.16.22l-.06.36c-.02.13-.09.21-.26.19-.37-.05-1.02-.09-1.64-.09-.51,0-1.17.14-1.17.79,0,.28.22.49.6.74l.99.65c.77.51.99.9.99,1.5,0,1.31-1.17,1.77-2.4,1.77-.47,0-1.25-.05-1.74-.16-.12-.02-.21-.1-.19-.22l.07-.39c.04-.14.09-.19.28-.16.52.07,1.32.12,1.73.12.65,0,1.26-.23,1.26-.95,0-.26-.13-.46-.64-.8l-1.01-.65c-.61-.4-.93-.84-.93-1.45,0-1.24,1.19-1.61,2.3-1.61.85,0,1.16.05,1.64.14h.02Z"/>
  <path class="cls-1" d="M170.33,29.37c.13,0,.2.07.18.22l-.07.37c-.04.2-.13.22-.26.22h-1.2l-.69,3.91c-.02.13-.04.23-.04.33,0,.33.15.35.51.35h.68c.12,0,.18.04.15.15l-.07.39c-.02.1-.08.16-.23.19-.22.03-.49.06-.7.06-.76,0-1.33-.29-1.33-1.05,0-.14,0-.26.05-.43l.69-3.88-1.05-.12c-.12,0-.2-.09-.18-.2l.06-.3c.04-.15.12-.2.25-.2h1.08l.18-1.09c.02-.12.12-.2.25-.22l.59-.09c.15-.02.19.08.16.19l-.2,1.22h1.2l-.02-.02Z"/>
  <path class="cls-1" d="M171.27,35.26c-.02.12-.14.22-.27.22h-.55c-.12,0-.19-.12-.16-.22l.99-5.68c.02-.12.13-.22.26-.22h.53c.13,0,.19.12.16.22l-.05.26c.6-.47,1.13-.56,1.65-.56h.02c.19,0,.22.08.2.2l-.08.47c-.02.12-.12.19-.27.19h-.04c-.63,0-1.05.12-1.59.46l-.81,4.67v-.02Z"/>
  <path class="cls-1" d="M175.73,29.37c.13,0,.21.05.18.22l-.99,5.68c-.02.12-.08.22-.27.22h-.54c-.15,0-.2-.12-.18-.22l.99-5.68c.04-.2.14-.22.27-.22h.54ZM176.16,27.05c.15,0,.2.07.18.22l-.15.89c-.04.15-.09.22-.27.22h-.57c-.16,0-.2-.12-.18-.22l.15-.89c.02-.12.1-.22.27-.22h.57Z"/>
  <path class="cls-1" d="M181.41,29.54c.2.05.21.12.19.26l-.96,5.47c-.02.12-.08.22-.26.22h-.44c-.16,0-.19-.09-.16-.25l.06-.35c-.65.47-1.05.67-1.79.67-.95,0-1.74-.6-1.74-1.97,0-.21.02-.43.07-.67l.2-1.1c.35-1.93,1.56-2.54,2.9-2.54.67,0,1.38.12,1.95.26h0ZM179.46,30.11c-1.15,0-1.73.63-1.94,1.81l-.2,1.15c-.04.16-.05.35-.05.51,0,.85.43,1.16.97,1.16s1-.23,1.61-.64l.68-3.87c-.3-.06-.61-.12-1.08-.12h0Z"/>
  <path class="cls-1" d="M184.18,27.11c.12,0,.19.06.15.21l-1.39,7.94c-.02.12-.07.22-.24.22h-.58c-.12,0-.18-.12-.15-.22l1.39-7.94c.02-.12.08-.21.25-.21h.58,0Z"/>
  <path class="cls-2" d="M28.42,2.08l-1.04,5.9c-.1.52-.47.9-.99.9h-.1c-1.89-.14-7.22-.61-10.62-.61-1.32,0-2.69.42-2.69,1.98,0,.66.47,1.08,2.08,2.03l5.76,3.4c3.4,1.98,4.72,4.58,4.72,7.88,0,8.83-7.41,12.42-15.44,12.42-3.87,0-6.89-.52-9.3-1.23-.42-.14-.81-.37-.81-.81v-.14l.99-5.81c.1-.52.52-.94,1.08-.94h.1c1.94.19,6.94.71,9.44.71,1.89,0,3.44-.66,3.44-2.78,0-.71-.47-1.23-1.84-2.13l-6.09-4.02c-2.74-1.79-4.06-4.86-4.06-7.79,0-8.5,6.65-11.06,14.16-11.06,3.73,0,8.64.61,10.48,1.18.37.14.71.33.71.76v.14Z"/>
  <path class="cls-2" d="M55.24,1.51l-.99,5.76c-.1.52-.61.94-1.13.94h-9.54c-1.7,0-2.36.57-2.69,2.36l-.61,3.44h11.61c.47,0,.81.33.81.81v.14l-.99,5.57c-.1.52-.57.94-1.08.94h-11.61l-.71,3.92c-.05.37-.1.66-.1.95,0,1.08.57,1.42,1.94,1.42h9.54c.47,0,.81.33.81.81v.14l-1.04,5.76c-.1.57-.47.85-1.08.95-1.84.24-4.72.57-9.3.57-5.52,0-10.58-1.98-10.58-8.17,0-.76.1-1.55.24-2.41l2.6-14.82C32.95,1.04,38.62,0,45.27,0c4.58,0,7.46.33,9.2.57.52.05.76.29.76.76v.19Z"/>
  <path class="cls-2" d="M88.72,1.42l-5.67,32.39c-.19.95-1.13,1.75-2.08,1.75h-5.86c-.85,0-1.37-.37-1.75-1.28l-6.99-15.82c-.14-.33-.29-.37-.42-.37s-.24.1-.29.42l-2.83,16.1c-.1.52-.61.94-1.13.94h-7.09c-.47,0-.81-.33-.81-.81v-.14L59.49,2.21c.19-.94,1.13-1.75,2.08-1.75h5.76c.9,0,1.28.57,1.65,1.37l7.17,16.29c.14.33.19.42.33.42s.29-.05.33-.42l2.92-16.71c.1-.52.61-.94,1.13-.94h7.09c.47,0,.76.33.76.76v.19h0Z"/>
  <path class="cls-2" d="M115.58,35.55h-8.03c-.47,0-.81-.42-.81-.9l-.14-6.56h-8.41l-2.5,6.56c-.19.47-.61.9-1.08.9h-8.36c-.42,0-.66-.24-.66-.61,0-.1.05-.24.1-.37l11.43-28.89C98.96.99,102.69.05,107.18.05s7.88.94,8.07,5.62l1.23,28.89v.05c0,.52-.37.94-.9.94h0ZM106.37,8.54c0-.42,0-.66-.42-.66s-.47.24-.61.66l-4.44,11.99h5.67l-.19-11.99Z"/>
  <path class="cls-3" d="M134.99,1.37c.1-.61-.29-.89-.81-.89h-7.75c-.52,0-.99.37-1.08.89l-1.48,8.38,10.5-4.92s.61-3.46.61-3.46Z"/>
  <path class="cls-2" d="M123.23,13.5l-3.72,21.1c-.1.47.19.95.76.95h7.75c.71,0,1.04-.42,1.13-.95l4.58-26.02s-10.5,4.92-10.5,4.92Z"/>
</svg>