<?xml version="1.0" encoding="UTF-8"?>
<svg id="Camada_1" xmlns="http://www.w3.org/2000/svg" viewBox="0 0 158.02 35.97">
  <defs>
    <style>
      .cls-1 {
        fill: #575756;
      }

      .cls-2 {
        fill: #69b32d;
      }

      .cls-3 {
        fill: #164193;
      }
    </style>
  </defs>
  <path class="cls-2" d="M96.82,1.33c.1-.61-.28-.89-.81-.89h-7.73c-.52,0-.99.38-1.09.89l-1.47,8.37,10.49-4.92s.61-3.46.61-3.46Z"/>
  <path class="cls-3" d="M85.06,13.45l-3.72,21.08c-.1.47.19.95.75.95h7.73c.71,0,1.04-.43,1.13-.95l4.58-26-10.49,4.92h.01Z"/>
  <path class="cls-3" d="M28.4,2.07l-1.04,5.9c-.1.52-.47.89-.99.89h-.1c-1.89-.14-7.22-.61-10.61-.61-1.32,0-2.69.43-2.69,1.98,0,.67.47,1.09,2.07,2.03l5.76,3.39c3.4,1.98,4.72,4.58,4.72,7.88,0,8.82-7.4,12.41-15.43,12.41-3.87,0-6.89-.52-9.29-1.22-.43-.14-.81-.38-.81-.81v-.14l.99-5.8c.1-.52.52-.95,1.09-.95h.1c1.93.19,6.93.71,9.43.71,1.89,0,3.44-.67,3.44-2.78,0-.71-.47-1.22-1.84-2.13l-6.08-4.01c-2.74-1.79-4.06-4.86-4.06-7.78,0-8.48,6.65-11.03,14.15-11.03,3.73,0,8.63.61,10.47,1.18.38.14.71.33.71.75,0,0,0,.14,0,.14Z"/>
  <path class="cls-3" d="M55.2,1.5l-.99,5.76c-.1.52-.61.95-1.13.95h-9.53c-1.7,0-2.35.57-2.69,2.35l-.61,3.44h11.6c.47,0,.81.33.81.81v.14l-.99,5.57c-.1.52-.57.94-1.09.94h-11.6l-.71,3.91c-.04.38-.1.67-.1.95,0,1.09.57,1.42,1.93,1.42h9.53c.47,0,.81.33.81.81v.14l-1.04,5.76c-.1.57-.47.85-1.09.95-1.84.24-4.72.57-9.29.57-5.52,0-10.56-1.98-10.56-8.15,0-.75.1-1.56.24-2.41l2.59-14.8C32.93,1.04,38.59,0,45.24,0c4.58,0,7.46.33,9.2.57.52.04.75.28.75.75v.19Z"/>
  <path class="cls-3" d="M82.18,2.07l-1.04,5.9c-.1.52-.47.89-.99.89h-.1c-1.89-.14-7.22-.61-10.61-.61-1.32,0-2.69.43-2.69,1.98,0,.67.47,1.09,2.07,2.03l5.76,3.39c3.4,1.98,4.72,4.58,4.72,7.88,0,8.82-7.4,12.41-15.43,12.41-3.87,0-6.89-.52-9.29-1.22-.43-.14-.81-.38-.81-.81v-.14l.99-5.8c.1-.52.52-.95,1.09-.95h.1c1.93.19,6.93.71,9.43.71,1.89,0,3.44-.67,3.44-2.78,0-.71-.47-1.22-1.84-2.13l-6.08-4.01c-2.74-1.79-4.06-4.86-4.06-7.78C56.85,2.54,63.5,0,71,0,74.73,0,79.64.61,81.47,1.18c.38.14.71.33.71.75,0,0,0,.14,0,.14Z"/>
  <path class="cls-1" d="M113.96.53c.14.02.17.05.15.19l-.08.48c-.02.13-.05.2-.24.17-.49-.03-1.26-.07-1.91-.07-.9,0-1.84.15-1.84,1.13,0,.53.25.8.99,1.29l.92.61c1.04.69,1.4,1.28,1.4,2.09,0,1.57-1.32,2.38-3.1,2.38-.61,0-1.42-.08-1.89-.15-.13-.02-.2-.07-.17-.2l.08-.45c.02-.15.07-.2.25-.17.5.04,1.31.07,1.82.07,1.2,0,1.94-.41,1.94-1.47,0-.53-.28-.8-1.07-1.33l-.97-.65c-.75-.51-1.21-1.14-1.21-1.94,0-1.55,1.34-2.1,2.86-2.1.65,0,1.67.07,2.08.13h-.01Z"/>
  <path class="cls-1" d="M119.29,5.29l-.09.47c-.03.14-.08.24-.24.24h-3.75l-.02.13c-.04.25-.07.48-.07.68,0,.83.52,1.19,1.37,1.19.64,0,1.4-.08,1.92-.15.16-.02.23.01.21.15l-.07.38c-.02.15-.08.22-.26.25-.65.12-1.2.19-1.94.19-1.1,0-2.19-.56-2.19-2.06,0-.21.02-.45.07-.69l.14-.77c.34-1.77,1.36-2.75,2.94-2.75,1.37,0,2.04.9,2.04,2.07,0,.21-.02.44-.07.67h0ZM117.17,3.4c-.97,0-1.61.76-1.81,1.79v.05h2.93v-.05c.05-.22.08-.44.08-.61,0-.78-.41-1.18-1.2-1.18Z"/>
  <path class="cls-1" d="M120.73,8.51c-.02.12-.14.22-.26.22h-.55c-.12,0-.19-.11-.16-.22l.99-5.67c.02-.12.13-.22.25-.22h.52c.13,0,.19.11.16.22l-.04.25c.6-.47,1.13-.56,1.65-.56h.02c.19,0,.22.08.2.2l-.08.47c-.02.12-.11.19-.26.19h-.03c-.63,0-1.05.11-1.59.46l-.81,4.66h-.01Z"/>
  <path class="cls-1" d="M128.94,2.89l-2.31,5.05c-.33.7-.78.88-1.23.88s-.84-.17-.93-.88l-.53-5.05c-.02-.2.08-.26.21-.26h.57c.09,0,.16.07.17.21l.39,4.82c.02.28.1.35.21.35.1,0,.2-.07.33-.35l2.1-4.82c.07-.14.12-.21.28-.21h.62c.09,0,.14.05.14.13,0,.04,0,.09-.03.13h.01Z"/>
  <path class="cls-1" d="M130.77,2.63c.13,0,.21.04.17.22l-.99,5.67c-.02.12-.08.22-.26.22h-.53c-.15,0-.2-.11-.17-.22l.99-5.67c.03-.2.14-.22.26-.22,0,0,.53,0,.53,0ZM131.2.32c.15,0,.2.07.17.22l-.15.89c-.03.15-.09.22-.26.22h-.57c-.16,0-.2-.11-.17-.22l.15-.89c.02-.12.1-.22.26-.22,0,0,.57,0,.57,0Z"/>
  <path class="cls-1" d="M136.04,2.91l-.07.4c-.02.11-.13.16-.23.16h-.03c-.48-.05-.81-.08-1.35-.08-.89,0-1.54.7-1.72,1.84l-.14.87c-.04.25-.07.47-.07.67,0,.84.4,1.18,1.12,1.18.55,0,.92-.02,1.4-.08h.03c.09,0,.16.04.16.13v.03l-.07.4c-.02.15-.09.21-.26.24-.38.07-.89.12-1.42.12-1.3,0-1.94-.9-1.94-2.09,0-.2.02-.4.05-.61l.14-.87c.31-1.8,1.33-2.7,2.85-2.7.52,0,1.01.05,1.36.12.13.02.19.07.19.16v.1ZM133.93,9.27l-1.52,1.4c-.12.11-.15.16-.27.16h-.6c-.05,0-.09-.02-.09-.07,0-.03.02-.08.07-.12l1.32-1.37c.12-.12.16-.16.31-.16h.73c.07,0,.11.02.11.07,0,.02,0,.05-.05.1h0Z"/>
  <path class="cls-1" d="M140.97,5.27l-.14.84c-.28,1.69-1.2,2.71-2.95,2.71-1.33,0-2.05-.87-2.05-2.1,0-.2.02-.4.05-.61l.14-.84c.32-1.8,1.29-2.71,2.94-2.71,1.36,0,2.06.87,2.06,2.09,0,.2-.02.41-.05.62ZM138.82,3.4c-.97,0-1.64.72-1.82,1.85l-.14.84c-.04.24-.07.46-.07.65,0,.78.36,1.2,1.22,1.2.98,0,1.65-.76,1.83-1.85l.14-.84c.04-.23.05-.45.05-.63,0-.8-.36-1.22-1.22-1.22Z"/>
  <path class="cls-1" d="M111.73,13.88c.14.02.17.05.15.19l-.08.48c-.02.13-.05.2-.24.17-.49-.03-1.26-.07-1.91-.07-.9,0-1.84.15-1.84,1.13,0,.53.25.8.99,1.29l.92.61c1.04.69,1.4,1.28,1.4,2.09,0,1.57-1.32,2.38-3.1,2.38-.61,0-1.42-.08-1.89-.15-.13-.02-.2-.07-.17-.2l.08-.45c.02-.15.07-.2.25-.17.5.04,1.31.07,1.82.07,1.2,0,1.94-.41,1.94-1.47,0-.53-.29-.8-1.07-1.33l-.97-.65c-.75-.51-1.21-1.14-1.21-1.94,0-1.55,1.34-2.1,2.86-2.1.65,0,1.67.07,2.08.13h-.01Z"/>
  <path class="cls-1" d="M117.07,18.6l-.14.84c-.29,1.69-1.2,2.71-2.95,2.71-1.33,0-2.05-.87-2.05-2.1,0-.2.02-.4.05-.61l.14-.84c.32-1.8,1.29-2.71,2.94-2.71,1.36,0,2.06.87,2.06,2.09,0,.2-.02.41-.05.62ZM114.93,16.75c-.97,0-1.64.72-1.82,1.85l-.14.84c-.04.24-.07.46-.07.65,0,.78.36,1.2,1.22,1.2.98,0,1.65-.76,1.83-1.85l.14-.84c.04-.23.05-.45.05-.63,0-.8-.36-1.22-1.22-1.22Z"/>
  <path class="cls-1" d="M118.88,18.59l-.14.86c-.04.25-.07.47-.07.67,0,.84.4,1.18,1.12,1.18.55,0,.92-.02,1.4-.08.17-.03.22.04.2.16l-.07.4c-.02.15-.09.21-.26.24-.37.07-.89.12-1.41.12-1.3,0-1.94-.9-1.94-2.09,0-.2.02-.4.05-.61l.14-.86c.31-1.8,1.32-2.7,2.85-2.7.51,0,1.01.05,1.36.12.2.03.2.1.17.24l-.07.4c-.02.12-.07.2-.26.16-.48-.05-.81-.08-1.35-.08-.89,0-1.54.7-1.72,1.84v.02Z"/>
  <path class="cls-1" d="M124.18,15.97c.13,0,.21.04.17.22l-.99,5.67c-.02.12-.08.22-.26.22h-.53c-.15,0-.2-.11-.17-.22l.99-5.67c.03-.2.14-.22.26-.22h.53ZM124.62,13.66c.15,0,.2.07.17.22l-.15.89c-.03.15-.09.22-.26.22h-.57c-.16,0-.2-.11-.17-.22l.15-.89c.02-.12.1-.22.26-.22h.57Z"/>
  <path class="cls-1" d="M129.85,16.15c.2.04.21.11.19.25l-.96,5.46c-.02.12-.08.22-.25.22h-.45c-.16,0-.19-.09-.16-.24l.05-.35c-.65.47-1.05.67-1.79.67-.95,0-1.73-.6-1.73-1.96,0-.21.02-.44.07-.67l.2-1.1c.35-1.92,1.56-2.53,2.89-2.53.67,0,1.37.11,1.94.25h.01ZM127.9,16.71c-1.14,0-1.72.63-1.93,1.81l-.2,1.14c-.03.16-.04.35-.04.51,0,.85.44,1.16.97,1.16s1-.23,1.61-.64l.68-3.87c-.31-.05-.61-.11-1.08-.11h-.01Z"/>
  <path class="cls-1" d="M132.62,13.73c.12,0,.19.05.15.21l-1.38,7.93c-.02.12-.07.22-.24.22h-.58c-.12,0-.17-.11-.15-.22l1.38-7.93c.02-.12.08-.21.24-.21,0,0,.58,0,.58,0Z"/>
  <path class="cls-1" d="M109.03,27.06h.57c.12,0,.17.05.15.21l-1.36,7.78c-.02.14-.08.22-.27.25-.71.13-1.41.19-2.08.19-1.35,0-2.02-.83-2.02-2.05,0-.22.02-.46.07-.7l.14-.8c.35-1.91,1.28-2.73,2.9-2.73.35,0,.87.03,1.28.11l.37-2.07c.03-.15.13-.21.25-.21h.01ZM106.98,30.09c-1.09,0-1.58.78-1.78,1.86l-.14.8c-.04.26-.08.51-.08.72,0,.75.34,1.17,1.19,1.17.38,0,.93-.03,1.31-.07l.77-4.42c-.36-.07-.93-.08-1.28-.08h0Z"/>
  <path class="cls-1" d="M114.71,29.49c.2.04.21.11.19.25l-.96,5.46c-.02.12-.08.22-.25.22h-.45c-.16,0-.19-.09-.16-.24l.05-.35c-.65.47-1.05.67-1.79.67-.95,0-1.73-.6-1.73-1.96,0-.21.02-.44.07-.67l.2-1.1c.35-1.92,1.56-2.53,2.89-2.53.67,0,1.37.11,1.94.25h.01ZM112.77,30.06c-1.14,0-1.72.63-1.93,1.81l-.2,1.14c-.03.16-.04.35-.04.51,0,.85.44,1.16.97,1.16s1-.23,1.61-.64l.68-3.87c-.31-.05-.61-.11-1.08-.11h-.01Z"/>
  <path class="cls-1" d="M120.35,27.17c.14,0,.19.07.16.21l-1.37,7.83c-.02.15-.09.22-.24.22h-.61c-.14,0-.17-.11-.15-.22l1.37-7.83c.02-.11.07-.21.23-.21h.61Z"/>
  <path class="cls-1" d="M125.91,31.54l-.64,3.65c-.02.12-.14.22-.26.22h-.53c-.13,0-.2-.11-.17-.22l.64-3.65c.03-.21.05-.44.05-.61,0-.53-.22-.84-1.04-.84-.43,0-.85.09-1.57.43l-.82,4.69c-.02.11-.14.22-.26.22h-.55c-.13,0-.19-.12-.16-.22l.99-5.67c.02-.12.09-.22.29-.22h.47c.17,0,.23.07.21.22l-.03.23c.53-.29,1.04-.53,1.79-.53,1.19,0,1.67.75,1.67,1.71,0,.19-.02.41-.05.6h-.02Z"/>
  <path class="cls-1" d="M131.65,27.06h.57c.12,0,.17.05.15.21l-1.36,7.78c-.02.14-.08.22-.27.25-.71.13-1.4.19-2.08.19-1.35,0-2.01-.83-2.01-2.05,0-.22.02-.46.07-.7l.14-.8c.35-1.91,1.28-2.73,2.9-2.73.35,0,.87.03,1.28.11l.37-2.07c.03-.15.13-.21.25-.21h0ZM129.6,30.09c-1.09,0-1.58.78-1.78,1.86l-.14.8c-.04.26-.08.51-.08.72,0,.75.34,1.17,1.19,1.17.38,0,.93-.03,1.31-.07l.77-4.42c-.36-.07-.93-.08-1.28-.08h0Z"/>
  <path class="cls-1" d="M137.88,29.53l-.99,5.67c-.02.12-.13.22-.25.22h-.52c-.11,0-.16-.08-.16-.17v-.04l.03-.2c-.67.35-1.19.5-1.84.5-.96,0-1.62-.59-1.62-1.76,0-.21.02-.44.07-.68l.62-3.53c.02-.12.14-.22.26-.22h.53c.11,0,.17.08.17.17v.04l-.64,3.65c-.04.24-.07.46-.07.63,0,.62.31.82,1.04.82.47,0,1.02-.15,1.58-.41l.82-4.7c.02-.12.14-.22.26-.22h.55c.11,0,.16.09.16.17v.04h.01ZM137.69,26.93l-1.52,1.4c-.12.11-.15.16-.28.16h-.6c-.05,0-.09-.02-.09-.07,0-.03.02-.08.07-.12l1.33-1.37c.12-.12.15-.16.29-.16h.73c.07,0,.11.02.11.07,0,.02-.01.05-.05.1h.01Z"/>
  <path class="cls-1" d="M142.6,29.37c.16.03.19.07.16.22l-.05.37c-.02.13-.09.21-.25.19-.38-.04-1.01-.09-1.64-.09-.51,0-1.17.14-1.17.78,0,.27.22.49.6.73l.99.65c.76.51.99.9.99,1.49,0,1.31-1.17,1.77-2.39,1.77-.47,0-1.24-.04-1.73-.16-.11-.02-.21-.1-.19-.22l.07-.39c.03-.14.09-.19.27-.16.52.07,1.32.12,1.72.12.65,0,1.25-.23,1.25-.95,0-.25-.13-.46-.64-.78l-1-.65c-.61-.4-.94-.84-.94-1.45,0-1.23,1.19-1.61,2.3-1.61.85,0,1.16.04,1.64.14h0Z"/>
  <path class="cls-1" d="M146.77,29.3c.13,0,.2.07.17.22l-.07.38c-.03.2-.13.22-.25.22h-1.2l-.69,3.9c-.02.13-.03.23-.03.33,0,.33.15.36.51.36h.68c.12,0,.17.03.15.15l-.07.39c-.02.1-.08.16-.23.19-.22.03-.49.05-.7.05-.75,0-1.33-.28-1.33-1.06,0-.14,0-.25.04-.44l.69-3.88-1.06-.12c-.11,0-.2-.09-.17-.2l.05-.31c.03-.15.12-.2.24-.2h1.08l.17-1.09c.02-.11.12-.2.24-.22l.59-.09c.15-.02.19.08.16.19l-.2,1.21s1.2,0,1.2,0Z"/>
  <path class="cls-1" d="M147.72,35.2c-.02.12-.14.22-.26.22h-.55c-.12,0-.19-.11-.16-.22l.99-5.67c.02-.12.13-.22.25-.22h.52c.13,0,.19.11.16.22l-.04.25c.6-.47,1.13-.56,1.65-.56h.02c.19,0,.22.08.2.2l-.08.47c-.02.12-.11.19-.26.19h-.03c-.63,0-1.05.11-1.59.46l-.81,4.66h-.01Z"/>
  <path class="cls-1" d="M152.16,29.3c.13,0,.21.04.17.22l-.99,5.67c-.02.12-.08.22-.26.22h-.53c-.15,0-.2-.11-.17-.22l.99-5.67c.03-.2.14-.22.26-.22,0,0,.53,0,.53,0ZM152.59,26.99c.15,0,.2.07.17.22l-.15.89c-.03.15-.09.22-.26.22h-.57c-.16,0-.2-.11-.17-.22l.15-.89c.02-.12.1-.22.26-.22h.57Z"/>
  <path class="cls-1" d="M157.83,29.49c.2.04.21.11.19.25l-.96,5.46c-.02.12-.08.22-.25.22h-.45c-.16,0-.19-.09-.16-.24l.05-.35c-.65.47-1.05.67-1.79.67-.95,0-1.73-.6-1.73-1.96,0-.21.02-.44.07-.67l.2-1.1c.35-1.92,1.56-2.53,2.89-2.53.67,0,1.37.11,1.94.25h.01ZM155.89,30.06c-1.14,0-1.72.63-1.93,1.81l-.2,1.14c-.03.16-.04.35-.04.51,0,.85.44,1.16.97,1.16s1-.23,1.61-.64l.68-3.87c-.31-.05-.61-.11-1.08-.11h-.01Z"/>
</svg>